<svg xmlns="http://www.w3.org/2000/svg" version="1.1" xmlns:xlink="http://www.w3.org/1999/xlink" xmlns:svgjs="http://svgjs.dev/svgjs" width="1000" height="1000"><g clip-path="url(#SvgjsClipPath1126)"><rect width="1000" height="1000" fill="#ffffff"></rect><g transform="matrix(5.287857756626347,0,0,5.287857756626347,100,370.8440742944015)"><svg xmlns="http://www.w3.org/2000/svg" version="1.1" xmlns:xlink="http://www.w3.org/1999/xlink" xmlns:svgjs="http://svgjs.dev/svgjs" width="151.29" height="48.85"><svg id="Layer_1" data-name="Layer 1" xmlns="http://www.w3.org/2000/svg" viewBox="0 0 151.29 48.85">
  <path d="M0,1.45h23.22v47.4H0V1.45ZM58.04,0c3.8,0,7.48.4,11.03,1.21,3.55.81,6.72,2.18,9.53,4.11,2.8,1.94,5.04,4.58,6.72,7.93,1.68,3.35,2.52,7.58,2.52,12.67v22.93h-23.22v-20.02c0-4.84-1.26-8.27-3.77-10.3-2.52-2.03-7.06-3.05-13.64-3.05-3.48,0-6.85.39-10.11,1.16-3.26.77-6.18,1.69-8.75,2.76-2.58,1.06-4.61,2.11-6.09,3.14l-.19-3.68c.26-1.16,1.14-2.79,2.66-4.88,1.51-2.1,3.72-4.21,6.63-6.34,2.9-2.13,6.56-3.93,10.98-5.42,4.42-1.48,9.66-2.23,15.72-2.23ZM121.5,0c3.8,0,7.48.4,11.03,1.21,3.55.81,6.72,2.18,9.53,4.11,2.81,1.94,5.05,4.58,6.72,7.93,1.68,3.35,2.51,7.58,2.51,12.67v22.93h-23.22v-20.02c0-4.84-1.26-8.27-3.77-10.3-2.51-2.03-7.06-3.05-13.64-3.05-3.48,0-6.85.39-10.11,1.16-3.26.77-6.18,1.69-8.75,2.76-2.58,1.06-4.61,2.11-6.09,3.14l-.19-4.64c.26-.97,1.22-2.42,2.9-4.35,1.68-1.93,4.05-3.93,7.11-6,3.06-2.06,6.77-3.84,11.12-5.32,4.35-1.48,9.3-2.23,14.85-2.23Z"></path>
</svg></svg></g></g><defs><clipPath id="SvgjsClipPath1126"><rect width="1000" height="1000" x="0" y="0" rx="500" ry="500"></rect></clipPath></defs></svg>